<?xml version="1.0" encoding="UTF-8" standalone="no"?>
<svg
   xmlns:osb="http://www.openswatchbook.org/uri/2009/osb"
   xmlns:dc="http://purl.org/dc/elements/1.1/"
   xmlns:cc="http://creativecommons.org/ns#"
   xmlns:rdf="http://www.w3.org/1999/02/22-rdf-syntax-ns#"
   xmlns:svg="http://www.w3.org/2000/svg"
   xmlns="http://www.w3.org/2000/svg"
   xmlns:xlink="http://www.w3.org/1999/xlink"
   style="display:inline"
   xml:space="preserve"
   enable-background="new 0 0 96 96"
   viewBox="0 0 96 96"
   height="96"
   width="96"
   y="0px"
   x="0px"
   id="ORANGE_BACKGROUNDS"
   version="1.1"><metadata
   id="metadata3069"><rdf:RDF><cc:Work
       rdf:about=""><dc:format>image/svg+xml</dc:format><dc:type
         rdf:resource="http://purl.org/dc/dcmitype/StillImage" /><dc:title></dc:title></cc:Work></rdf:RDF></metadata><defs
   id="defs3067"><linearGradient
   osb:paint="solid"
   id="linearGradient5113"><stop
     id="stop5115"
     offset="0"
     style="stop-color:#64af2d;stop-opacity:1;" /></linearGradient><linearGradient
   id="linearGradient5332"><stop
     id="stop5334"
     offset="0"
     style="stop-color:#78c56d;stop-opacity:1;" /></linearGradient><linearGradient
   id="linearGradient3799"><stop
     id="stop3801"
     offset="0"
     style="stop-color:#7886e4;stop-opacity:1;" /></linearGradient><linearGradient
   y2="87.9897"
   x2="47.9995"
   y1="8.0107002"
   x1="47.9995"
   gradientUnits="userSpaceOnUse"
   id="RED_x2F_ORANGE_5_2_-1"><stop
     id="stop3054-7"
     style="stop-color:#FFDB62"
     offset="0" /><stop
     id="stop3056-4"
     style="stop-color:#FAD15C"
     offset="0.1393" /><stop
     id="stop3058-0"
     style="stop-color:#EDB74D"
     offset="0.3741" /><stop
     id="stop3060-9"
     style="stop-color:#E6A844"
     offset="0.4848" /><stop
     id="stop3062-4"
     style="stop-color:#C96B25"
     offset="1" /></linearGradient><linearGradient
   xlink:href="#RED_x2F_ORANGE_5_2_-1"
   id="linearGradient3091"
   gradientUnits="userSpaceOnUse"
   x1="47.9995"
   y1="8.0107002"
   x2="47.9995"
   y2="87.9897"
   gradientTransform="translate(2.000003,-1.988)" /><linearGradient
   y2="87.9897"
   x2="47.9995"
   y1="8.0107002"
   x1="47.9995"
   gradientTransform="translate(1.5e-6,5e-4)"
   gradientUnits="userSpaceOnUse"
   id="linearGradient3124"
   xlink:href="#RED_x2F_ORANGE_5_2_-1" /><linearGradient
   y2="87.9897"
   x2="47.9995"
   y1="8.0107002"
   x1="47.9995"
   gradientTransform="translate(1.5e-6,5e-4)"
   gradientUnits="userSpaceOnUse"
   id="linearGradient3124-1"
   xlink:href="#RED_x2F_ORANGE_5_2_-1-7" /><linearGradient
   y2="87.9897"
   x2="47.9995"
   y1="8.0107002"
   x1="47.9995"
   gradientUnits="userSpaceOnUse"
   id="RED_x2F_ORANGE_5_2_-1-7"><stop
     id="stop3054-7-4"
     style="stop-color:#FFDB62"
     offset="0" /><stop
     id="stop3056-4-0"
     style="stop-color:#FAD15C"
     offset="0.1393" /><stop
     id="stop3058-0-9"
     style="stop-color:#EDB74D"
     offset="0.3741" /><stop
     id="stop3060-9-4"
     style="stop-color:#E6A844"
     offset="0.4848" /><stop
     id="stop3062-4-8"
     style="stop-color:#C96B25"
     offset="1" /></linearGradient><linearGradient
   xlink:href="#RED_x2F_ORANGE_5_2_-1-7"
   id="linearGradient3234"
   gradientUnits="userSpaceOnUse"
   gradientTransform="translate(1.5e-6,5e-4)"
   x1="47.9995"
   y1="8.0107002"
   x2="47.9995"
   y2="87.9897" /><linearGradient
   xlink:href="#RED_x2F_ORANGE_5_2_-1-7-2"
   id="linearGradient3234-8"
   gradientUnits="userSpaceOnUse"
   gradientTransform="translate(1.5e-6,5e-4)"
   x1="47.9995"
   y1="8.0107002"
   x2="47.9995"
   y2="87.9897" /><linearGradient
   y2="87.9897"
   x2="47.9995"
   y1="8.0107002"
   x1="47.9995"
   gradientUnits="userSpaceOnUse"
   id="RED_x2F_ORANGE_5_2_-1-7-2"><stop
     id="stop3054-7-4-4"
     style="stop-color:#FFDB62"
     offset="0" /><stop
     id="stop3056-4-0-5"
     style="stop-color:#FAD15C"
     offset="0.1393" /><stop
     id="stop3058-0-9-5"
     style="stop-color:#EDB74D"
     offset="0.3741" /><stop
     id="stop3060-9-4-1"
     style="stop-color:#E6A844"
     offset="0.4848" /><stop
     id="stop3062-4-8-7"
     style="stop-color:#C96B25"
     offset="1" /></linearGradient><linearGradient
   xlink:href="#RED_x2F_ORANGE_5_2_-1-7-2"
   id="linearGradient3277"
   gradientUnits="userSpaceOnUse"
   gradientTransform="translate(1.5e-6,5e-4)"
   x1="47.9995"
   y1="8.0107002"
   x2="47.9995"
   y2="87.9897" /><linearGradient
   gradientUnits="userSpaceOnUse"
   y2="31.75"
   x2="-15"
   y1="31.75"
   x1="-77.5"
   id="linearGradient3803-1"
   xlink:href="#linearGradient3799-7" /><linearGradient
   id="linearGradient3799-7"><stop
     id="stop3801-4"
     offset="0"
     style="stop-color:#78d9e4;stop-opacity:1;" /></linearGradient><linearGradient
   xlink:href="#linearGradient3799-7-4"
   id="linearGradient3819-9"
   gradientUnits="userSpaceOnUse"
   x1="-77.5"
   y1="31.75"
   x2="-15"
   y2="31.75" /><linearGradient
   id="linearGradient3799-7-4"><stop
     id="stop3801-4-8"
     offset="0"
     style="stop-color:#782ee4;stop-opacity:1;" /></linearGradient><linearGradient
   xlink:href="#linearGradient3799-7-4-4"
   id="linearGradient3850-2"
   gradientUnits="userSpaceOnUse"
   x1="-77.5"
   y1="31.75"
   x2="-15"
   y2="31.75" /><linearGradient
   id="linearGradient3799-7-4-4"><stop
     id="stop3801-4-8-5"
     offset="0"
     style="stop-color:#782e38;stop-opacity:1;" /></linearGradient><linearGradient
   xlink:href="#RED_x2F_ORANGE_5_2_-1-7-2-7"
   id="linearGradient3277-1"
   gradientUnits="userSpaceOnUse"
   gradientTransform="translate(1.5e-6,5e-4)"
   x1="47.9995"
   y1="8.0107002"
   x2="47.9995"
   y2="87.9897" /><linearGradient
   y2="87.9897"
   x2="47.9995"
   y1="8.0107002"
   x1="47.9995"
   gradientUnits="userSpaceOnUse"
   id="RED_x2F_ORANGE_5_2_-1-7-2-7"><stop
     id="stop3054-7-4-4-4"
     style="stop-color:#FFDB62"
     offset="0" /><stop
     id="stop3056-4-0-5-0"
     style="stop-color:#FAD15C"
     offset="0.1393" /><stop
     id="stop3058-0-9-5-9"
     style="stop-color:#EDB74D"
     offset="0.3741" /><stop
     id="stop3060-9-4-1-4"
     style="stop-color:#E6A844"
     offset="0.4848" /><stop
     id="stop3062-4-8-7-8"
     style="stop-color:#C96B25"
     offset="1" /></linearGradient><linearGradient
   xlink:href="#RED_x2F_ORANGE_5_2_-1-7-2-7"
   id="linearGradient4552"
   gradientUnits="userSpaceOnUse"
   gradientTransform="translate(1.5e-6,5e-4)"
   x1="47.9995"
   y1="8.0107002"
   x2="47.9995"
   y2="87.9897" /><linearGradient
   xlink:href="#RED_x2F_ORANGE_5_2_-1-7-2-7-4"
   id="linearGradient4552-2"
   gradientUnits="userSpaceOnUse"
   gradientTransform="translate(1.5e-6,5e-4)"
   x1="47.9995"
   y1="8.0107002"
   x2="47.9995"
   y2="87.9897" /><linearGradient
   y2="87.9897"
   x2="47.9995"
   y1="8.0107002"
   x1="47.9995"
   gradientUnits="userSpaceOnUse"
   id="RED_x2F_ORANGE_5_2_-1-7-2-7-4"><stop
     id="stop3054-7-4-4-4-5"
     style="stop-color:#FFDB62"
     offset="0" /><stop
     id="stop3056-4-0-5-0-5"
     style="stop-color:#FAD15C"
     offset="0.1393" /><stop
     id="stop3058-0-9-5-9-1"
     style="stop-color:#EDB74D"
     offset="0.3741" /><stop
     id="stop3060-9-4-1-4-7"
     style="stop-color:#E6A844"
     offset="0.4848" /><stop
     id="stop3062-4-8-7-8-1"
     style="stop-color:#C96B25"
     offset="1" /></linearGradient>
	

		<linearGradient
   osb:paint="gradient"
   y2="87.9897"
   x2="47.9995"
   y1="8.0107002"
   x1="47.9995"
   gradientUnits="userSpaceOnUse"
   id="RED_x2F_ORANGE_5_2_-8">
			<stop
   id="stop6363"
   style="stop-color:#FFDB62"
   offset="0" />
			<stop
   id="stop6365"
   style="stop-color:#FAD15C"
   offset="0.1393" />
			<stop
   id="stop6367"
   style="stop-color:#EDB74D"
   offset="0.3741" />
			<stop
   id="stop6369"
   style="stop-color:#E6A844"
   offset="0.4848" />
			<stop
   id="stop6371"
   style="stop-color:#C96B25"
   offset="1" />
		</linearGradient>
		
		<linearGradient
   y2="87.504303"
   x2="47.9995"
   y1="8.2559004"
   x1="47.9995"
   gradientUnits="userSpaceOnUse"
   id="HIGHLIGHTS_RO5_1_">
			<stop
   id="stop6375"
   style="stop-color:#FFFFFF"
   offset="0" />
			<stop
   id="stop6377"
   style="stop-color:#FDF8F5"
   offset="0.0958" />
			<stop
   id="stop6379"
   style="stop-color:#F6E6DB"
   offset="0.2579" />
			<stop
   id="stop6381"
   style="stop-color:#EBC9AF"
   offset="0.4666" />
			<stop
   id="stop6383"
   style="stop-color:#DCA073"
   offset="0.7136" />
			<stop
   id="stop6385"
   style="stop-color:#CA6D28"
   offset="0.9904" />
			<stop
   id="stop6387"
   style="stop-color:#C96B25"
   offset="1" />
		</linearGradient>
		
	
	
<linearGradient
   y2="89.741203"
   x2="47.9995"
   y1="9.7622004"
   x1="47.9995"
   gradientUnits="userSpaceOnUse"
   id="linearGradient5108"
   xlink:href="#VIOLET_1_3_" /><linearGradient
   gradientTransform="matrix(0.14388489,0,0,0.14184397,-12.158274,-16.411348)"
   gradientUnits="userSpaceOnUse"
   y2="-35.875"
   x2="-19.75"
   y1="-35.875"
   x1="-54.5"
   id="linearGradient5117-3"
   xlink:href="#linearGradient5113-1" /><linearGradient
   osb:paint="solid"
   id="linearGradient5113-1"><stop
     id="stop5115-9"
     offset="0"
     style="stop-color:#449311;stop-opacity:1;" /></linearGradient><linearGradient
   xlink:href="#linearGradient5113-1-5"
   id="linearGradient5133-6"
   gradientUnits="userSpaceOnUse"
   gradientTransform="matrix(0.14388489,0,0,0.14184397,-7.158274,-16.411348)"
   x1="-54.5"
   y1="-35.875"
   x2="-19.75"
   y2="-35.875" /><linearGradient
   osb:paint="solid"
   id="linearGradient5113-1-5"><stop
     id="stop5115-9-0"
     offset="0"
     style="stop-color:#128406;stop-opacity:1;" /></linearGradient><linearGradient
   xlink:href="#linearGradient5113-1-5-6"
   id="linearGradient5164-8"
   gradientUnits="userSpaceOnUse"
   gradientTransform="matrix(0.14388489,0,0,0.14184397,-2.158274,-16.411348)"
   x1="-54.5"
   y1="-35.875"
   x2="-19.75"
   y2="-35.875" /><linearGradient
   osb:paint="solid"
   id="linearGradient5113-1-5-6"><stop
     id="stop5115-9-0-0"
     offset="0"
     style="stop-color:#009351;stop-opacity:1;" /></linearGradient><linearGradient
   osb:paint="solid"
   id="linearGradient5113-1-5-6-8"><stop
     id="stop5115-9-0-0-6"
     offset="0"
     style="stop-color:#1b34b2;stop-opacity:1;" /></linearGradient><linearGradient
   osb:paint="solid"
   id="linearGradient5113-1-5-0"><stop
     id="stop5115-9-0-9"
     offset="0"
     style="stop-color:#0066a8;stop-opacity:1;" /></linearGradient><linearGradient
   osb:paint="solid"
   id="linearGradient5113-1-0"><stop
     id="stop5115-9-6"
     offset="0"
     style="stop-color:#0082b6;stop-opacity:1;" /></linearGradient><linearGradient
   gradientTransform="matrix(0.14388489,0,0,0.14184397,-12.158274,-16.411348)"
   gradientUnits="userSpaceOnUse"
   y2="-35.875"
   x2="-19.75"
   y1="-35.875"
   x1="-54.5"
   id="linearGradient5117-1"
   xlink:href="#linearGradient5113-3" /><linearGradient
   osb:paint="solid"
   id="linearGradient5113-3"><stop
     id="stop5115-8"
     offset="0"
     style="stop-color:#0d9758;stop-opacity:1;" /></linearGradient><linearGradient
   xlink:href="#linearGradient5113-3-0"
   id="linearGradient5238-6"
   gradientUnits="userSpaceOnUse"
   gradientTransform="matrix(0.14388489,0,0,0.14184397,-12.158274,-11.411348)"
   x1="-54.5"
   y1="-35.875"
   x2="-19.75"
   y2="-35.875" /><linearGradient
   osb:paint="solid"
   id="linearGradient5113-3-0"><stop
     id="stop5115-8-6"
     offset="0"
     style="stop-color:#2c00a5;stop-opacity:1;" /></linearGradient><linearGradient
   osb:paint="solid"
   id="linearGradient5113-1-0-1"><stop
     id="stop5115-9-6-8"
     offset="0"
     style="stop-color:#62226a;stop-opacity:1;" /></linearGradient><linearGradient
   osb:paint="solid"
   id="linearGradient5113-1-5-0-9"><stop
     id="stop5115-9-0-9-6"
     offset="0"
     style="stop-color:#e50c98;stop-opacity:1;" /></linearGradient><linearGradient
   osb:paint="solid"
   id="linearGradient5113-1-5-6-8-7"><stop
     id="stop5115-9-0-0-6-8"
     offset="0"
     style="stop-color:#ec297b;stop-opacity:1;" /></linearGradient><linearGradient
   osb:paint="solid"
   id="linearGradient5113-1-5-6-8-7-5"><stop
     id="stop5115-9-0-0-6-8-9"
     offset="0"
     style="stop-color:#ff7a0d;stop-opacity:1;" /></linearGradient><linearGradient
   osb:paint="solid"
   id="linearGradient5113-1-5-0-9-4"><stop
     id="stop5115-9-0-9-6-0"
     offset="0"
     style="stop-color:#ff5b00;stop-opacity:1;" /></linearGradient><linearGradient
   osb:paint="solid"
   id="linearGradient5113-1-0-1-6"><stop
     id="stop5115-9-6-8-3"
     offset="0"
     style="stop-color:#f74000;stop-opacity:1;" /></linearGradient><linearGradient
   xlink:href="#linearGradient5113-3-0-1"
   id="linearGradient5305-6"
   gradientUnits="userSpaceOnUse"
   gradientTransform="matrix(0.14388489,0,0,0.14184397,-12.158274,-6.411348)"
   x1="-54.5"
   y1="-35.875"
   x2="-19.75"
   y2="-35.875" /><linearGradient
   osb:paint="solid"
   id="linearGradient5113-3-0-1"><stop
     id="stop5115-8-6-5"
     offset="0"
     style="stop-color:#e21429;stop-opacity:1;" /></linearGradient><linearGradient
   osb:paint="solid"
   id="linearGradient5113-1-5-6-8-7-5-3"><stop
     id="stop5115-9-0-0-6-8-9-7"
     offset="0"
     style="stop-color:#e0e0e0;stop-opacity:1;" /></linearGradient><linearGradient
   osb:paint="solid"
   id="linearGradient5113-1-5-0-9-4-6"><stop
     id="stop5115-9-0-9-6-0-0"
     offset="0"
     style="stop-color:#e8e8e8;stop-opacity:1;" /></linearGradient><linearGradient
   osb:paint="solid"
   id="linearGradient5113-1-0-1-6-6"><stop
     id="stop5115-9-6-8-3-5"
     offset="0"
     style="stop-color:#f7d303;stop-opacity:1;" /></linearGradient><linearGradient
   xlink:href="#linearGradient5113-3-0-1-5"
   id="linearGradient5372-7"
   gradientUnits="userSpaceOnUse"
   gradientTransform="matrix(0.14388489,0,0,0.14184397,-12.158274,-1.411348)"
   x1="-54.5"
   y1="-35.875"
   x2="-19.75"
   y2="-35.875" /><linearGradient
   osb:paint="solid"
   id="linearGradient5113-3-0-1-5"><stop
     id="stop5115-8-6-5-4"
     offset="0"
     style="stop-color:#ffa300;stop-opacity:1;" /></linearGradient><linearGradient
   xlink:href="#linearGradient5113-1-5-0-9-4-6-4"
   id="linearGradient5164-5-4-8-2-1"
   gradientUnits="userSpaceOnUse"
   gradientTransform="matrix(0.14388489,0,0,0.14184397,-12.158274,8.588652)"
   x1="-54.5"
   y1="-35.875"
   x2="-19.75"
   y2="-35.875" /><linearGradient
   osb:paint="solid"
   id="linearGradient5113-1-5-0-9-4-6-4"><stop
     id="stop5115-9-0-9-6-0-0-6"
     offset="0"
     style="stop-color:#d3d3d3;stop-opacity:1;" /></linearGradient><linearGradient
   osb:paint="solid"
   id="linearGradient5113-1-5-6-8-7-5-3-7"><stop
     id="stop5115-9-0-0-6-8-9-7-1"
     offset="0"
     style="stop-color:#cecece;stop-opacity:1;" /></linearGradient><linearGradient
   osb:paint="gradient"
   y2="70.455498"
   x2="48.452099"
   y1="39.117199"
   x1="48.452099"
   gradientUnits="userSpaceOnUse"
   id="SVGID_1_"><stop
     id="stop4392-1"
     style="stop-color:#FAFCEF"
     offset="0.3232" /><stop
     id="stop4394-7"
     style="stop-color:#D0CBC5"
     offset="1" /></linearGradient><linearGradient
   xlink:href="#SVGID_1_"
   id="linearGradient4418"
   gradientUnits="userSpaceOnUse"
   x1="48.452099"
   y1="39.117199"
   x2="48.452099"
   y2="70.455498"
   gradientTransform="translate(68.546831,-90.188689)" /><linearGradient
   y2="144.6673"
   x2="47.9995"
   y1="0"
   x1="47.9995"
   gradientUnits="userSpaceOnUse"
   id="HIGHLIGHT_RIM_1_"><stop
     id="stop4495"
     style="stop-color:#FFFFFF"
     offset="0" /><stop
     id="stop4497"
     style="stop-color:#000000"
     offset="1" /></linearGradient><linearGradient
   id="linearGradient4559"
   gradientUnits="userSpaceOnUse"
   x1="47.9995"
   y1="0"
   x2="47.9995"
   y2="144.6673"><stop
     offset="0"
     style="stop-color:#FFFFFF"
     id="stop4561" /><stop
     offset="1"
     style="stop-color:#000000"
     id="stop4563" /></linearGradient><linearGradient
   y2="144.6673"
   x2="47.9995"
   y1="0"
   x1="47.9995"
   gradientUnits="userSpaceOnUse"
   id="linearGradient3263"
   xlink:href="#HIGHLIGHT_RIM_1_" /></defs>
<linearGradient
   y2="87.9897"
   x2="47.9995"
   y1="8.0107002"
   x1="47.9995"
   gradientUnits="userSpaceOnUse"
   id="RED_x2F_ORANGE_5_2_">
	<stop
   id="stop3054"
   style="stop-color:#FFDB62"
   offset="0" />
	<stop
   id="stop3056"
   style="stop-color:#FAD15C"
   offset="0.1393" />
	<stop
   id="stop3058"
   style="stop-color:#EDB74D"
   offset="0.3741" />
	<stop
   id="stop3060"
   style="stop-color:#E6A844"
   offset="0.4848" />
	<stop
   id="stop3062"
   style="stop-color:#C96B25"
   offset="1" />
</linearGradient>

<g
   style="display:inline"
   id="layer5"><rect
     y="0"
     x="0"
     height="96"
     width="96"
     id="rect3119"
     style="display:inline;fill:#000000;fill-opacity:0;stroke:none" /></g><g
   style="display:inline"
   id="layer4"><path
     d="m 88.023,49 c 0,29.633 -10.364,40 -40,40 -29.635,0 -40,-10.367 -40,-40 0,-29.634 10.366,-40 40,-40 29.636,0 40,10.365 40,40 z"
     id="SHADOW"
     style="opacity:0.4" /></g><g
   style="display:inline"
   id="layer7"><path
     id="rect6936"
     d="M 48 7.9785156 C 18.365 7.9785156 8 18.344516 8 47.978516 C 8 77.611516 18.365 87.978516 48 87.978516 C 77.637 87.978516 88 77.610516 88 47.978516 C 88 18.343516 77.637 7.9785156 48 7.9785156 z "
     style="fill:#000000;fill-opacity:1" /></g><g
   style="display:inline"
   id="layer2"><path
     id="path7943"
     d="M 13.613281 20.998047 C 13.200243 21.655927 12.817066 22.349921 12.453125 23.064453 C 43.616102 25.910907 70.556103 45.359852 83.269531 73.4375 C 83.705504 72.626355 84.105023 71.773453 84.476562 70.884766 C 71.281351 43.284433 44.530483 24.16314 13.613281 20.998047 z "
     style="color:#000000;font-style:normal;font-variant:normal;font-weight:normal;font-stretch:normal;font-size:medium;line-height:normal;font-family:sans-serif;font-variant-ligatures:normal;font-variant-position:normal;font-variant-caps:normal;font-variant-numeric:normal;font-variant-alternates:normal;font-feature-settings:normal;text-indent:0;text-align:start;text-decoration:none;text-decoration-line:none;text-decoration-style:solid;text-decoration-color:#000000;letter-spacing:normal;word-spacing:normal;text-transform:none;writing-mode:lr-tb;direction:ltr;text-orientation:mixed;dominant-baseline:auto;baseline-shift:baseline;text-anchor:start;white-space:normal;shape-padding:0;clip-rule:nonzero;display:inline;overflow:visible;visibility:visible;opacity:1;isolation:auto;mix-blend-mode:normal;color-interpolation:sRGB;color-interpolation-filters:linearRGB;solid-color:#000000;solid-opacity:1;vector-effect:none;fill:#4444ff;fill-opacity:1;fill-rule:nonzero;stroke:none;stroke-width:2.17707777;stroke-linecap:butt;stroke-linejoin:miter;stroke-miterlimit:4;stroke-dasharray:none;stroke-dashoffset:0;stroke-opacity:1;color-rendering:auto;image-rendering:auto;shape-rendering:auto;text-rendering:auto;enable-background:accumulate" /><path
     id="rect8000"
     d="m 29.911507,33.348645 -4.942009,7.177128 36.782623,25.327452 4.544012,-6.599056 a 6.5354884,6.5354884 0 0 1 -4.543374,1.838398 6.5354884,6.5354884 0 0 1 -6.535486,-6.535486 6.5354884,6.5354884 0 0 1 0.84298,-3.20311 L 40.643608,40.738591 a 6.5354884,6.5354884 0 0 1 -5.068935,2.417747 6.5354884,6.5354884 0 0 1 -6.535485,-6.535486 6.5354884,6.5354884 0 0 1 0.881248,-3.266042 z"
     style="display:inline;fill:#4444ff;fill-opacity:0;stroke:#ffffff;stroke-width:2.17707777;stroke-miterlimit:4;stroke-dasharray:none;stroke-opacity:1" /><circle
     r="6.5354886"
     cy="54.557178"
     cx="61.752842"
     id="path7945-5"
     style="display:inline;fill:#4444ff;fill-opacity:0;stroke:#ffffff;stroke-width:2.17707777;stroke-miterlimit:4;stroke-dasharray:none;stroke-opacity:1" /><circle
     r="6.5354886"
     cy="36.620747"
     cx="35.574722"
     id="path7945"
     style="display:inline;fill:#4444ff;fill-opacity:0.00995023;stroke:#ffffff;stroke-width:2.17707777;stroke-miterlimit:4;stroke-dasharray:none;stroke-opacity:1" /></g><g
   style="display:inline"
   id="layer3"><path
     style="fill:url(#linearGradient3263);fill-opacity:0.25"
     id="HIGHLIGHT_RIM"
     d="m 48,7.979 c -29.635,0 -40,10.365 -40,40 0,29.633 10.365,40 40,40 29.637,0 40,-10.367 40,-40 0,-29.635 -10.363,-40 -40,-40 z m 0,79.023 C 18.841,87.002 9,77.154 9,47.978 9,18.803 18.841,8.956 48,8.956 c 29.158,0 39,9.847 39,39.022 0,29.176 -9.842,39.024 -39,39.024 z" /><path
     d="m 48,87.979 c -29.635,0 -40,-10.367 -40,-40 0,-29.634 10.365,-40 40,-40 29.637,0 40,10.365 40,40 0,29.632 -10.363,40 -40,40 z"
     display="none"
     id="SQUIRCLE"
     style="display:none;fill:#ffffff;fill-opacity:0.05" /><path
     id="path4502"
     d="M 9.478,64.25 C 13.244,81.519 24.624,87.979 48,87.979 c 23.378,0 34.756,-6.46 38.522,-23.729 z"
     style="opacity:0.02000002" /><path
     id="path4504"
     d="M 10.242,67.25 C 14.659,82.271 26.031,87.979 48,87.979 c 21.971,0 33.342,-5.708 37.758,-20.729 z"
     style="opacity:0.02000002" /><path
     id="path4506"
     d="M 11.258,70.25 C 16.284,83.041 27.555,87.979 48,87.979 c 20.446,0 31.717,-4.938 36.742,-17.729 z"
     style="opacity:0.02000002" /><path
     id="path4508"
     d="M 12.636,73.25 C 18.211,83.815 29.241,87.979 48,87.979 c 18.76,0 29.79,-4.163 35.365,-14.729 z"
     style="opacity:0.02000002" /><path
     id="path4510"
     d="M 13.797,75.25 C 19.685,84.348 30.47,87.979 48,87.979 c 17.531,0 28.316,-3.631 34.203,-12.729 z"
     style="opacity:0.02000002" /><path
     id="path4512"
     d="m 15.255,77.25 c 6.141,7.628 16.566,10.729 32.745,10.729 16.18,0 26.604,-3.101 32.745,-10.729 z"
     style="opacity:0.02000002" /><path
     id="path4514"
     d="m 17.059,79.25 c 6.305,6.177 16.254,8.729 30.941,8.729 14.688,0 24.638,-2.552 30.942,-8.729 z"
     style="fill-opacity:0.02000002" /><path
     id="path4517"
     d="m 48,8.979 c -29.635,0 -40,10.365 -40,40 0,2.888 0.102,5.588 0.307,8.119 l 0.219,0.02 h 78.958 l 0.21,-0.019 c 0.205,-2.531 0.307,-5.23 0.307,-8.12 C 88,19.344 77.637,8.979 48,8.979 Z"
     style="opacity:0.01000001;fill:#ffffff" /><path
     id="path4519"
     d="m 48,7.979 c -29.635,0 -40,10.365 -40,40 0,1.051 0.017,2.073 0.043,3.077 l 0.701,0.062 H 87.26 l 0.697,-0.063 C 87.983,50.051 88,49.029 88,47.978 88,18.344 77.637,7.979 48,7.979 Z"
     style="opacity:0.01000001;fill:#ffffff" /><path
     id="path4521"
     d="m 8.965,46.116 h 78.072 l 0.941,-0.084 C 87.521,17.897 76.975,7.979 48,7.979 19.027,7.979 8.479,17.898 8.022,46.033 Z"
     style="opacity:0.01000001;fill:#ffffff" /><path
     id="path4523"
     d="M 9.186,41.116 H 86.814 L 87.775,41.03 C 86.147,16.713 75.187,7.979 48,7.979 20.815,7.979 9.853,16.714 8.225,41.032 Z"
     style="opacity:0.01000001;fill:#ffffff" /><path
     id="path4525"
     d="m 9.186,37.116 h 77.628 c 0.201,0 0.397,-0.036 0.594,-0.066 C 84.854,15.753 73.648,7.979 48,7.979 c -25.646,0 -36.854,7.774 -39.408,29.072 0.197,0.029 0.392,0.065 0.594,0.065 z"
     style="opacity:0.01000001;fill:#ffffff" /><path
     id="path4527"
     d="m 48,7.979 c -24.004,0 -35.363,6.805 -38.814,25.138 H 86.814 C 83.363,14.783 72.006,7.979 48,7.979 Z"
     style="opacity:0.01000001;fill:#ffffff" /><path
     id="path4529"
     d="m 84.074,29.67 1.6,-0.376 c 0.083,-0.02 0.158,-0.058 0.239,-0.084 C 81.605,13.805 70.22,7.979 48,7.979 c -22.218,0 -33.604,5.827 -37.913,21.231 0.081,0.026 0.156,0.064 0.239,0.084 l 1.599,0.376 c 0.226,0.053 0.456,0.08 0.688,0.08 h 70.773 c 0.232,0 0.463,-0.027 0.688,-0.08 z"
     style="opacity:0.01000001;fill:#ffffff" /><path
     id="path4531"
     d="m 12.613,26.75 h 70.773 l 1.6,-0.376 C 80.091,13.093 68.794,7.979 48,7.979 c -20.792,0 -32.09,5.115 -36.986,18.395 z"
     style="opacity:0.01000001;fill:#ffffff" /><path
     id="path4533"
     d="m 12.613,24.75 h 70.773 c 0.305,0 0.595,-0.081 0.86,-0.208 C 78.999,12.621 67.81,7.979 48,7.979 c -19.808,0 -30.998,4.643 -36.247,16.563 0.266,0.127 0.556,0.208 0.86,0.208 z"
     style="opacity:0.01000001;fill:#ffffff" /><path
     id="path4535"
     d="M 83.387,22.75 C 77.82,12.153 66.786,7.979 48,7.979 29.215,7.979 18.181,12.153 12.613,22.75 Z"
     style="opacity:0.01000001;fill:#ffffff" /></g></svg>